<?xml version="1.0" encoding="UTF-8" standalone="no"?>
<!-- Created with Inkscape (http://www.inkscape.org/) -->

<svg
   xmlns:dc="http://purl.org/dc/elements/1.1/"
   xmlns:cc="http://creativecommons.org/ns#"
   xmlns:rdf="http://www.w3.org/1999/02/22-rdf-syntax-ns#"
   xmlns:svg="http://www.w3.org/2000/svg"
   xmlns="http://www.w3.org/2000/svg"
   xmlns:sodipodi="http://sodipodi.sourceforge.net/DTD/sodipodi-0.dtd"
   xmlns:inkscape="http://www.inkscape.org/namespaces/inkscape"
   height="59.97261mm"
   width="59.972221mm"
   viewBox="0 0 212.5 212.50137"
   id="svg3742"
   version="1.1"
   inkscape:version="0.91 r13725"
   sodipodi:docname="heikki.svg">
  <defs
     id="defs3748">
    <clipPath
       clipPathUnits="userSpaceOnUse"
       id="clipPath242">
      <path
         d="m 5865.12,1437.73 c 0,469.45 -380.57,850 -850,850 -469.46,0 -850,-380.55 -850,-850 0,-469.441 380.54,-850.011 850,-850.011 469.43,0 850,380.57 850,850.011 z"
         id="path244"
         inkscape:connector-curvature="0" />
    </clipPath>
  </defs>
  <sodipodi:namedview
     pagecolor="#ffffff"
     bordercolor="#666666"
     borderopacity="1"
     objecttolerance="10"
     gridtolerance="10"
     guidetolerance="10"
     inkscape:pageopacity="0"
     inkscape:pageshadow="2"
     inkscape:window-width="1317"
     inkscape:window-height="744"
     id="namedview3746"
     showgrid="false"
     fit-margin-top="0"
     fit-margin-left="0"
     fit-margin-right="0"
     fit-margin-bottom="0"
     inkscape:zoom="1.7940591"
     inkscape:cx="72.327564"
     inkscape:cy="156.29795"
     inkscape:window-x="49"
     inkscape:window-y="24"
     inkscape:window-maximized="1"
     inkscape:current-layer="svg3742" />
  <metadata
     id="metadata3744">
    <rdf:RDF>
      <cc:Work
         rdf:about="">
        <dc:format>image/svg+xml</dc:format>
        <dc:type
           rdf:resource="http://purl.org/dc/dcmitype/StillImage" />
        <dc:title></dc:title>
      </cc:Work>
    </rdf:RDF>
  </metadata>
  <path
     d="M 212.5,106.24875 C 212.5,47.56875 164.93,0 106.25125,0 47.57,0 0,47.56875 0,106.24875 0,164.92862 47.57,212.499 106.25125,212.499 164.93,212.499 212.5,164.92862 212.5,106.24875"
     style="fill:#f49810;fill-opacity:1;fill-rule:nonzero;stroke:none"
     id="path234"
     inkscape:connector-curvature="0" />
  <path
     d="M 212.5,106.24875 C 212.5,47.56875 164.93,0 106.25125,0 l 0,212.499 C 164.93,212.499 212.5,164.92862 212.5,106.24875"
     style="fill:#eb9213;fill-opacity:1;fill-rule:nonzero;stroke:none"
     id="path236"
     inkscape:connector-curvature="0" />
  <g
     transform="matrix(0.125,0,0,-0.125,-520.63875,285.96625)"
     id="g238">
    <g
       id="g240"
       clip-path="url(#clipPath242)">
      <path
         d="m 4893.81,950.41 248.922,0 0,272.949 -248.922,0 0,-272.949 z"
         style="fill:#d89e81;fill-opacity:1;fill-rule:nonzero;stroke:none"
         id="path246"
         inkscape:connector-curvature="0" />
      <path
         d="m 5141.16,1078.13 42.45,0 c 79.09,-20.38 165.62,-34.83 223.22,-101.521 35.88,-41.55 98.22,-388.89 98.22,-388.89 l -488.36,0 0,393.242 c 68.74,0 124.47,43.499 124.47,97.169"
         style="fill:#c8303e;fill-opacity:1;fill-rule:nonzero;stroke:none"
         id="path248"
         inkscape:connector-curvature="0" />
      <path
         d="m 4892.22,1078.13 -42.37,0 c -79.08,-20.38 -165.7,-34.83 -223.3,-101.521 -35.89,-41.55 -98.22,-388.89 -98.22,-388.89 l 488.36,0 0,393.242 c -68.74,0 -124.47,43.499 -124.47,97.169"
         style="fill:#c8303e;fill-opacity:1;fill-rule:nonzero;stroke:none"
         id="path250"
         inkscape:connector-curvature="0" />
      <path
         d="m 5018.26,2004.39 c 120.86,0 311.99,-68.71 311.99,-390.66 0,-185.9 -60.6,-307.68 -87.01,-341.37 -24.29,-30.99 -160.9,-97.04 -224.98,-97.04 0,325.38 0,829.07 0,829.07"
         style="fill:#e9b89d;fill-opacity:1;fill-rule:nonzero;stroke:none"
         id="path252"
         inkscape:connector-curvature="0" />
      <path
         d="m 5390.37,1536.96 c 5.33,51.44 -19.18,97.09 -54.73,101.98 -35.57,4.87 -68.71,-32.89 -74.05,-84.33 -5.33,-51.43 19.18,-97.07 54.76,-101.95 35.54,-4.87 68.69,32.88 74.02,84.3"
         style="fill:#e9b89d;fill-opacity:1;fill-rule:nonzero;stroke:none"
         id="path254"
         inkscape:connector-curvature="0" />
      <path
         d="m 5018.26,2004.39 c -120.86,0 -311.99,-68.71 -311.99,-390.66 0,-185.9 60.6,-307.68 87.01,-341.37 24.3,-30.99 160.89,-97.04 224.98,-97.04 0,325.38 0,829.07 0,829.07"
         style="fill:#f3d4b3;fill-opacity:1;fill-rule:nonzero;stroke:none"
         id="path256"
         inkscape:connector-curvature="0" />
      <path
         d="m 4646.15,1536.96 c -5.33,51.44 19.18,97.09 54.73,101.98 35.57,4.87 68.71,-32.89 74.04,-84.33 5.34,-51.43 -19.18,-97.07 -54.74,-101.95 -35.55,-4.87 -68.71,32.88 -74.03,84.3"
         style="fill:#f3d4b3;fill-opacity:1;fill-rule:nonzero;stroke:none"
         id="path258"
         inkscape:connector-curvature="0" />
      <path
         d="m 5018.26,1296.78 c 56.34,0 102,18.61 102,41.56 l -203.99,0 c 0,-22.95 45.66,-41.56 101.99,-41.56"
         style="fill:#ffffff;fill-opacity:1;fill-rule:nonzero;stroke:none"
         id="path260"
         inkscape:connector-curvature="0" />
      <path
         d="m 5269.69,1588.2 c 13.01,33.21 38.75,54.47 65.95,50.74 0.06,-0.01 0.14,-0.03 0.21,-0.05 12.33,38.19 16.76,83.59 -0.17,131.77 -90,256.23 12.23,301.98 12.23,301.98 0,0 -99.53,4.45 -176.74,-59.46 53.24,82.54 77.21,103.85 77.21,103.85 0,0 -111.82,23.96 -231.62,-98.51 26.62,66.56 58.57,100.41 58.57,100.41 0,0 -250.27,-1.9 -340.8,-182.95 -51.6,-103.2 -55.58,-214.99 -43.09,-299.5 3.05,1.11 6.18,2.01 9.44,2.46 11.81,1.61 23.32,-1.54 33.65,-8.26 0,39.05 0,73.58 0,78.99 47.93,21.31 98.52,47.93 95.85,154.43 111.83,0 173.06,0 173.06,0 l 178.38,0 c 0,0 -7.99,-119.82 87.87,-149.1 0,-49.96 0,-94.05 0,-126.8"
         style="fill:#4e3024;fill-opacity:1;fill-rule:nonzero;stroke:none"
         id="path262"
         inkscape:connector-curvature="0" />
      <path
         d="m 5016.74,949.43 c 92.15,0 166.87,57.62 166.87,128.7 l -42.75,0 c 0,-53.57 -55.55,-97.021 -124.12,-97.161 -68.6,0.14 -124.13,43.591 -124.13,97.161 l -42.76,0 c 0,-71.08 74.72,-128.7 166.89,-128.7"
         style="fill:#35988c;fill-opacity:1;fill-rule:nonzero;stroke:none"
         id="path264"
         inkscape:connector-curvature="0" />
    </g>
  </g>
</svg>
