<?xml version="1.0" encoding="UTF-8" standalone="no"?>
<svg
   xmlns:dc="http://purl.org/dc/elements/1.1/"
   xmlns:cc="http://creativecommons.org/ns#"
   xmlns:rdf="http://www.w3.org/1999/02/22-rdf-syntax-ns#"
   xmlns:svg="http://www.w3.org/2000/svg"
   xmlns="http://www.w3.org/2000/svg"
   xmlns:xlink="http://www.w3.org/1999/xlink"
   xmlns:sodipodi="http://sodipodi.sourceforge.net/DTD/sodipodi-0.dtd"
   xmlns:inkscape="http://www.inkscape.org/namespaces/inkscape"
   viewBox="0 0 482.25 440.09"
   version="1.1"
   id="svg23"
   sodipodi:docname="homepage_o.svg"
   inkscape:export-filename="/home/dlan/local/src/memocate/frontpage/graphics/homepage_o.svg.png"
   inkscape:export-xdpi="96"
   inkscape:export-ydpi="96"
   inkscape:version="0.92.2 5c3e80d, 2017-08-06">
  <metadata
     id="metadata27">
    <rdf:RDF>
      <cc:Work
         rdf:about="">
        <dc:format>image/svg+xml</dc:format>
        <dc:type
           rdf:resource="http://purl.org/dc/dcmitype/StillImage" />
      </cc:Work>
    </rdf:RDF>
  </metadata>
  <sodipodi:namedview
     pagecolor="#ffffff"
     bordercolor="#666666"
     borderopacity="1"
     objecttolerance="10"
     gridtolerance="10"
     guidetolerance="10"
     inkscape:pageopacity="0"
     inkscape:pageshadow="2"
     inkscape:window-width="3043"
     inkscape:window-height="1486"
     id="namedview25"
     showgrid="false"
     inkscape:zoom="1.5167552"
     inkscape:cx="145.64131"
     inkscape:cy="278.08633"
     inkscape:window-x="0"
     inkscape:window-y="55"
     inkscape:window-maximized="0"
     inkscape:current-layer="svg23" />
  <defs
     id="defs7">
    <style
       id="style2">
      .cls-1 {
        fill: none;
      }

      .cls-2 {
        clip-path: url(#clip-path);
      }

      .cls-3 {
        fill: #e6f7f1;
      }

      .cls-4 {
        fill: #fcfcfc;
      }
    </style>
    <clipPath
       id="clip-path">
      <path
         class="cls-1"
         d="M917.63-1093.27a377.6,377.6,0,0,0-269.38,112.6,377.6,377.6,0,0,0-269.38-112.6C169.63-1093.27,0-923.65,0-714.4v498.14H219V-714.4A159.89,159.89,0,0,1,378.87-874.29,159.89,159.89,0,0,1,538.76-714.4v498.14h219V-714.4A159.89,159.89,0,0,1,917.63-874.29"
         id="path4" />
    </clipPath>
  </defs>
  <title
     id="title9">memocate_homepage_v2</title>
  <g
     id="about_us1"
     data-name="about us1">
    <path
       class="cls-3"
       d="M275.18,25.94C160.82,25.94,68.11,118.65,68.11,233s92.71,207.07,207.07,207.07S482.25,347.38,482.25,233,389.54,25.94,275.18,25.94Zm0,334.73A127.66,127.66,0,1,1,402.84,233,127.66,127.66,0,0,1,275.18,360.67Z"
       id="path16" />
    <image
       sodipodi:absref="/home/dlan/local/src/memocate/frontpage/graphics/./homepage_o.png"
       xlink:href="./homepage_o.png"
       transform="translate(-27) scale(0.24)"
       style=""
       id="image18"
       height="1968"
       width="1381" />
    <circle
       class="cls-4"
       cx="276.27"
       cy="232.97"
       r="127.66"
       id="circle20" />
  </g>
</svg>
