<svg xmlns="http://www.w3.org/2000/svg" viewBox="0 0 250.78 179.24">
  <defs>
    <style>
      .cls-1 {
        fill: #5b5b5b;
      }
    </style>
  </defs>
  <title>homepage_talk</title>
  <g id="about_us4_copy" data-name="about us4 copy">
    <g>
      <path class="cls-1" d="M41,39.11h70.76a4,4,0,0,0,0-8.09H41a4,4,0,0,0,0,8.09Z"/>
      <path class="cls-1" d="M41,53.92h70.76a4,4,0,0,0,0-8.09H41a4,4,0,0,0,0,8.09Z"/>
      <path class="cls-1" d="M115.79,65.07a4,4,0,0,0-4-4H41a4,4,0,0,0,0,8.09h70.76A4,4,0,0,0,115.79,65.07Z"/>
      <path class="cls-1" d="M216.05,45.05H152.73V34.73A34.76,34.76,0,0,0,118,0H34.73A34.76,34.76,0,0,0,0,34.73V65.41a34.77,34.77,0,0,0,32.81,34.67l27.83,32.68a4,4,0,0,0,7.13-2.62v-30H98v10.33a34.76,34.76,0,0,0,34.73,34.73H183v30a4,4,0,0,0,7.13,2.62L218,145.14a34.77,34.77,0,0,0,32.81-34.67V79.78A34.76,34.76,0,0,0,216.05,45.05ZM63.72,92a4,4,0,0,0-4,4v23.06L37.81,93.47A4,4,0,0,0,34.73,92,26.66,26.66,0,0,1,8.09,65.41V34.73A26.66,26.66,0,0,1,34.73,8.09H118a26.66,26.66,0,0,1,26.63,26.63V65.41A26.66,26.66,0,0,1,118,92H63.72Zm179,18.42a26.66,26.66,0,0,1-26.63,26.63,4,4,0,0,0-3.08,1.42L191.1,164.2V141.14a4,4,0,0,0-4-4H132.77a26.66,26.66,0,0,1-26.63-26.63V100.14H118a34.76,34.76,0,0,0,34.73-34.73V53.15h63.32a26.66,26.66,0,0,1,26.63,26.63Z"/>
    </g>
  </g>
</svg>
