<svg xmlns="http://www.w3.org/2000/svg" viewBox="0 0 56.63 55.18">
  <defs>
    <style>
      .cls-1 {
        fill: #e9e9e9;
        opacity: 0.5;
      }

      .cls-2 {
        fill: #383838;
      }
    </style>
  </defs>
  <title>memocate_homepage_v2</title>
  <g id="team">
    <circle class="cls-1" cx="29.04" cy="27.59" r="27.59"/>
    <path class="cls-2" d="M41.17,33.14c-4-3.25-5.64-1.63-7.19-.06l-.28.28c-.13.13-.71.07-1.78-.62a25,25,0,0,1-3.71-3.19C23.7,25,24.4,24.07,24.41,24.07l.28-.28c1.57-1.55,3.2-3.15-.05-7.19a4.7,4.7,0,0,0-3.35-2.11c-1.66,0-2.93,1.25-4,2.35l-.43.45c-1.21,1.21-1.24,3.76-.08,6.83a29.76,29.76,0,0,0,6.85,10,29.73,29.73,0,0,0,10,6.84,11.84,11.84,0,0,0,4,.86,3.85,3.85,0,0,0,2.79-.93l.5-.48c1.11-1.06,2.38-2.26,2.31-3.93A4.69,4.69,0,0,0,41.17,33.14Zm-20-17v-.37h0l.05.38a3.3,3.3,0,0,1,2.13,1.49c2.32,2.88,1.65,3.54.18,5l-.29.28c-1.38,1.39-.21,3.8,3.81,7.81a26.45,26.45,0,0,0,4,3.41c1.71,1.11,3,1.25,3.84.41l.29-.29c1.44-1.46,2.1-2.13,5,.19a3.34,3.34,0,0,1,1.49,2.13c0,.93-.94,1.85-1.8,2.67l-.53.51c-.59.59-2.39.72-5.09-.3A28.08,28.08,0,0,1,24.81,33a28.1,28.1,0,0,1-6.47-9.42c-1-2.7-.88-4.5-.3-5.09l.51-.53C19.35,17.09,20.26,16.14,21.16,16.14Z"/>
  </g>
</svg>
