<?xml version="1.0" encoding="UTF-8" standalone="no"?>
<!-- Created with Inkscape (http://www.inkscape.org/) -->

<svg
   xmlns:dc="http://purl.org/dc/elements/1.1/"
   xmlns:cc="http://creativecommons.org/ns#"
   xmlns:rdf="http://www.w3.org/1999/02/22-rdf-syntax-ns#"
   xmlns:svg="http://www.w3.org/2000/svg"
   xmlns="http://www.w3.org/2000/svg"
   xmlns:sodipodi="http://sodipodi.sourceforge.net/DTD/sodipodi-0.dtd"
   xmlns:inkscape="http://www.inkscape.org/namespaces/inkscape"
   height="59.972221mm"
   width="59.972221mm"
   viewBox="0 0 212.5 212.5"
   id="svg3998"
   version="1.1"
   inkscape:version="0.91 r13725"
   sodipodi:docname="camilla.svg">
  <defs
     id="defs4004">
    <clipPath
       clipPathUnits="userSpaceOnUse"
       id="clipPath398">
      <path
         d="m 3834.88,6562.27 c 0,469.44 -380.55,850 -850,850 -469.44,0 -849.99,-380.56 -849.99,-850 0,-469.45 380.55,-850.01 849.99,-850.01 469.45,0 850,380.56 850,850.01 z"
         id="path400"
         inkscape:connector-curvature="0" />
    </clipPath>
  </defs>
  <sodipodi:namedview
     pagecolor="#ffffff"
     bordercolor="#666666"
     borderopacity="1"
     objecttolerance="10"
     gridtolerance="10"
     guidetolerance="10"
     inkscape:pageopacity="0"
     inkscape:pageshadow="2"
     inkscape:window-width="1317"
     inkscape:window-height="744"
     id="namedview4002"
     showgrid="false"
     fit-margin-top="0"
     fit-margin-left="0"
     fit-margin-right="0"
     fit-margin-bottom="0"
     inkscape:zoom="1.7940591"
     inkscape:cx="25.320786"
     inkscape:cy="70.770536"
     inkscape:window-x="49"
     inkscape:window-y="24"
     inkscape:window-maximized="1"
     inkscape:current-layer="g396" />
  <metadata
     id="metadata4000">
    <rdf:RDF>
      <cc:Work
         rdf:about="">
        <dc:format>image/svg+xml</dc:format>
        <dc:type
           rdf:resource="http://purl.org/dc/dcmitype/StillImage" />
        <dc:title></dc:title>
      </cc:Work>
    </rdf:RDF>
  </metadata>
  <path
     d="M 212.5,106.25 C 212.5,47.57 164.93,0 106.24875,0 47.56875,0 0,47.57 0,106.25 0,164.93125 47.56875,212.5 106.24875,212.5 164.93,212.5 212.5,164.93125 212.5,106.25"
     style="fill:#5f9930;fill-opacity:1;fill-rule:nonzero;stroke:none"
     id="path390"
     inkscape:connector-curvature="0" />
  <path
     d="M 212.5,106.25 C 212.5,47.57 164.93,0 106.24875,0 l 0,212.5 C 164.93,212.5 212.5,164.93125 212.5,106.25"
     style="fill:#5b902f;fill-opacity:1;fill-rule:nonzero;stroke:none"
     id="path392"
     inkscape:connector-curvature="0" />
  <g
     transform="matrix(0.125,0,0,-0.125,-266.86125,926.5325)"
     id="g394">
    <g
       id="g396"
       clip-path="url(#clipPath398)">
      <path
         d="m 3349.58,6534.38 c 0,-201.42 -163.28,-96.93 -364.69,-96.93 l 0,0 c -201.42,0 -364.7,-104.49 -364.7,96.93 l 0,329.68 c 0,201.43 163.28,364.7 364.7,364.7 l 0,0 c 201.41,0 364.69,-163.27 364.69,-364.7 l 0,-329.68"
         style="fill:#f8e20c;fill-opacity:1;fill-rule:nonzero;stroke:none"
         id="path402"
         inkscape:connector-curvature="0" />
      <path
         d="m 3358.48,6860.97 c 0,205.47 -166.56,372.02 -372.02,372.02 -205.46,0 -372.01,-166.55 -372.01,-372.02 0,-205.46 166.55,-372.01 372.01,-372.01 205.46,0 372.02,166.55 372.02,372.01"
         style="fill:#f8e20c;fill-opacity:1;fill-rule:nonzero;stroke:none"
         id="path404"
         inkscape:connector-curvature="0" />
      <path
         d="m 3110.93,6064.31 -126.04,-353.56 -122.89,353.56 0,272.95 248.93,0 0,-272.95"
         style="fill:#eac3a4;fill-opacity:1;fill-rule:nonzero;stroke:none"
         id="path406"
         inkscape:connector-curvature="0" />
      <path
         d="m 2986.46,7093.74 c -120.85,0 -311.99,-68.71 -311.99,-390.67 0,-185.89 72.46,-273.54 98.86,-307.23 24.31,-30.99 149.04,-131.18 213.13,-131.18 0,325.39 0,829.08 0,829.08"
         style="fill:#f3d4b3;fill-opacity:1;fill-rule:nonzero;stroke:none"
         id="path408"
         inkscape:connector-curvature="0" />
      <path
         d="m 2614.35,6626.3 c -5.34,51.44 19.18,97.1 54.73,101.97 35.57,4.88 68.72,-32.87 74.05,-84.31 5.33,-51.43 -19.19,-97.08 -54.75,-101.96 -35.56,-4.87 -68.71,32.87 -74.03,84.3"
         style="fill:#f3d4b3;fill-opacity:1;fill-rule:nonzero;stroke:none"
         id="path410"
         inkscape:connector-curvature="0" />
      <path
         d="m 2985.48,7093.74 c 120.86,0 311.99,-68.71 311.99,-390.67 0,-185.89 -72.45,-273.54 -98.86,-307.23 -24.3,-30.99 -149.03,-131.18 -213.13,-131.18 0,325.39 0,829.08 0,829.08"
         style="fill:#e9b89d;fill-opacity:1;fill-rule:nonzero;stroke:none"
         id="path412"
         inkscape:connector-curvature="0" />
      <path
         d="m 3358.58,6626.3 c 5.33,51.44 -19.19,97.1 -54.74,101.97 -35.57,4.88 -68.71,-32.87 -74.04,-84.31 -5.34,-51.43 19.18,-97.08 54.74,-101.96 35.56,-4.87 68.71,32.87 74.04,84.3"
         style="fill:#e9b89d;fill-opacity:1;fill-rule:nonzero;stroke:none"
         id="path414"
         inkscape:connector-curvature="0" />
      <path
         d="m 2984.89,5710.75 0,340 c 0,0 -92.86,23.01 -113.34,98.23 -9.83,36.16 -9.55,65.17 -9.55,65.17 0,0 -203.05,-68.58 -248.38,-139.41 -37.72,-112.29 -48.07,-363.99 -48.07,-363.99 l 419.34,0"
         style="fill:#eac3a4;fill-opacity:1;fill-rule:nonzero;stroke:none"
         id="path416"
         inkscape:connector-curvature="0" />
      <path
         d="m 2984.89,5710.75 0,340 c 0,0 92.86,23.01 113.33,98.23 9.83,36.16 9.56,65.17 9.56,65.17 0,0 203.05,-68.58 248.38,-139.41 37.72,-112.29 48.06,-363.99 48.06,-363.99 l -419.33,0"
         style="fill:#eac3a4;fill-opacity:1;fill-rule:nonzero;stroke:none"
         id="path418"
         inkscape:connector-curvature="0" />
      <path
         d="m 2986.46,6378.05 c 47.12,0 85.31,28.92 85.31,64.62 l -170.61,0 c 0,-35.7 38.19,-64.62 85.3,-64.62"
         style="fill:#ffffff;fill-opacity:1;fill-rule:nonzero;stroke:none"
         id="path420"
         inkscape:connector-curvature="0" />
      <path
         d="m 2968.88,7186.37 c -220.85,0 -287.99,-193.48 -287.99,-282.58 -80.09,-111.32 7.22,-210.92 69.04,-245.91 0,20.71 0,28.29 0,54.78 0,71.99 68.44,138.65 171.26,127.55 92.14,-9.94 150.16,42.12 199.18,130.66 60.51,118.56 -15.01,215.5 -151.49,215.5"
         style="fill:#f8e20c;fill-opacity:1;fill-rule:nonzero;stroke:none"
         id="path422"
         inkscape:connector-curvature="0" />
      <path
         d="m 3110.93,7007.27 c 0,0 51.6,-209.49 192.91,-279 25.16,188.33 40.02,148.66 0,247.82 -40.01,99.18 -192.91,172.85 -192.91,172.85 l 0,-141.67"
         style="fill:#f8e20c;fill-opacity:1;fill-rule:nonzero;stroke:none"
         id="path424"
         inkscape:connector-curvature="0" />
      <path
         d="m 2984.89,5710.75 0,285.96 -122.89,217.44 c 0,0 -203.05,-68.58 -248.38,-139.41 -37.72,-112.29 -48.07,-363.99 -48.07,-363.99 l 419.34,0"
         style="fill:#7eb9e7;fill-opacity:1;fill-rule:nonzero;stroke:none"
         id="path426"
         inkscape:connector-curvature="0" />
      <path
         d="m 2984.89,5710.75 0,285.96 122.89,217.44 c 0,0 203.05,-68.58 248.38,-139.41 37.72,-112.29 48.06,-363.99 48.06,-363.99 l -419.33,0"
         style="fill:#6baee1;fill-opacity:1;fill-rule:nonzero;stroke:none"
         id="path428"
         inkscape:connector-curvature="0" />
      <path
         d="m 2984.89,5996.71 -122.89,217.44 -112.89,-36.1 96.1,-215.6 139.68,34.26"
         style="fill:#ffffff;fill-opacity:1;fill-rule:nonzero;stroke:none"
         id="path430"
         inkscape:connector-curvature="0" />
      <path
         d="m 2984.89,5996.71 122.89,217.44 112.89,-36.1 -96.1,-215.6 -139.68,34.26"
         style="fill:#ffffff;fill-opacity:1;fill-rule:nonzero;stroke:none"
         id="path432"
         inkscape:connector-curvature="0" />
    </g>
  </g>
</svg>
