<svg xmlns="http://www.w3.org/2000/svg" viewBox="0 0 239.91 139.43">
  <defs>
    <style>
      .cls-1 {
        fill: #5b5b5b;
      }
    </style>
  </defs>
  <title>homepage_handshake</title>
  <g id="about_us4" data-name="about us4">
    <path class="cls-1" d="M235.44,12.53c-9.36-6.59-19.3-2.25-22.45,5.53a.08.08,0,0,1-.08.05H191.67a.08.08,0,0,1-.07-.07A22.23,22.23,0,0,0,172.52.18,4,4,0,0,0,171.38,0H73.71a6.77,6.77,0,0,0-1.2.08,22.27,22.27,0,0,0-19,18H26.94C23.82,10.3,13.85,5.93,4.47,12.53A10.84,10.84,0,0,0,0,21.43V77.17a10.89,10.89,0,0,0,4.51,9C14,92.76,24,88.21,27,80.24a.07.07,0,0,1,.07-.06h9.36a.07.07,0,0,1,.07.1,14,14,0,0,0-.39,3.25A13.93,13.93,0,0,0,50,97.48a13.93,13.93,0,0,0,14,13.9h.08s0,0,0,.07a13.94,13.94,0,0,0,14,14h.08s0,0,0,.07a13.86,13.86,0,0,0,4.08,9.88,14.21,14.21,0,0,0,15.56,3,11.43,11.43,0,0,0,3.82-2.59l7.92-7.92,7.75,7.54a14,14,0,0,0,23-4.88,13.95,13.95,0,0,0,22.7-6.45,13.95,13.95,0,0,0,15.91-2.7,13.83,13.83,0,0,0,3.58-6.18,14,14,0,0,0,15.33-3,14.21,14.21,0,0,0,3-15.54,11.41,11.41,0,0,0-2.59-3.83L187.35,82.07l-1.82-1.89h27.32c3,8,13,12.59,22.54,5.94a10.88,10.88,0,0,0,4.51-8.95V21.44A10.85,10.85,0,0,0,235.44,12.53ZM19.84,75.35c0,4.89-6,8.4-11,3.57a2.54,2.54,0,0,1-.74-1.85V21.56a2.57,2.57,0,0,1,.74-1.86c5-4.82,11-1.31,11,3.58ZM53.3,88.43a6.08,6.08,0,0,1-7.35-.75,5.9,5.9,0,0,1,0-8.31L56.29,69a5.86,5.86,0,0,1,9.19,7.14L54.11,87.53C53.83,87.82,53.56,88.12,53.3,88.43Zm13.75,14.23a3.12,3.12,0,0,1-1.76.82c-4.43.19-7.18-2.71-7.18-6.07a5.86,5.86,0,0,1,.93-3.18c.32-.27.63-.54.92-.84L71.79,81.3,82.25,70.84a6,6,0,0,1,2.63-1.62c4-1.07,7.94,1.81,7.73,7a3.1,3.1,0,0,1-.82,1.75l-7,7h0Zm14,14a3.12,3.12,0,0,1-1.74.82c-5.16.24-8-3.72-7-7.73A6,6,0,0,1,74,107.15L90.89,90.27a3.17,3.17,0,0,1,.85-.63c4.38-2.1,9.2.81,9,6.49a3.11,3.11,0,0,1-.82,1.75l-7.38,7.38Zm25.57,2.47-.16.13c-.08.08-.13.17-.2.25L95.12,130.71a3.11,3.11,0,0,1-1.73.82c-5.16.25-8.07-3.73-7-7.74A6,6,0,0,1,88,121.18L98.24,111a5.87,5.87,0,0,1,8.43,8.17Zm85.7-20.62a3.21,3.21,0,0,1,.63.85c2.12,4.38-.81,9.2-6.46,9a3.09,3.09,0,0,1-1.75-.82l-6-6L151.23,74a1,1,0,0,0-.65-.28c-5.08-.1-6.4,4.67-4,7.11l26.84,26.84a3.23,3.23,0,0,1,.63.85c2.14,4.38-.8,9.23-6.48,9a3.1,3.1,0,0,1-1.74-.82l-6.48-6.48,0,0L135.65,86.49a1,1,0,0,0-.65-.28c-5.08-.1-6.4,4.67-4,7.11l11.33,11.33h0l11.29,11.29c3.43,3.45,1.69,10.14-5.24,10.3a2.63,2.63,0,0,1-1.89-.81l-24.9-24.9a1,1,0,0,0-.65-.28c-5.08-.1-6.4,4.67-4,7.11l14.31,14.31h0a5.49,5.49,0,0,1-.05,8,6,6,0,0,1-8.35,0l-8.16-7.94a13.94,13.94,0,0,0-8.06-19.79,14,14,0,0,0-2.17-16.91,13.84,13.84,0,0,0-5.7-3.44A14,14,0,0,0,96.42,65a14.21,14.21,0,0,0-15.55-3,11.41,11.41,0,0,0-3.82,2.59l-3.58,3.58c-1.68-4.38-5.57-8.1-12-9.22a11.08,11.08,0,0,0-9.69,3.13l-10,10H27.94V26.21H61.8V18.12a14.11,14.11,0,0,1,13.47-10h35.88l-8.35,8.35-1.68,1.68L93,26.21,82.11,37.13a4.12,4.12,0,0,0,0,5.89,22.2,22.2,0,0,0,31.28-.07L126,30.27l55.55,57.47ZM212,72.09H177.72L129,21.68a4,4,0,0,0-2.88-1.23h0a4,4,0,0,0-2.86,1.19L107.63,37.23A14.1,14.1,0,0,1,91,39.66L122.59,8.09h47.23a14.09,14.09,0,0,1,14.07,14l.07,4.12h28Zm19.84,3.26c0,4.88-6,8.4-11,3.57a2.55,2.55,0,0,1-.74-1.85V21.57a2.57,2.57,0,0,1,.75-1.87c5-4.82,11-1.31,11,3.58Z"/>
  </g>
</svg>
