<svg xmlns="http://www.w3.org/2000/svg" viewBox="0 0 187.88 212.51">
  <defs>
    <style>
      .cls-1 {
        fill: #5b5b5b;
      }
    </style>
  </defs>
  <title>homepage_lightbulb</title>
  <g id="about_us4_copy" data-name="about us4 copy">
    <g>
      <path class="cls-1" d="M124,133.81c14.2-10,22.62-25.7,22.62-42.35a52.67,52.67,0,1,0-83.26,42.32A30.33,30.33,0,0,0,74,154.73,12.2,12.2,0,0,0,66.33,175a12.26,12.26,0,0,0-3.12,8.2,12.08,12.08,0,0,0,3.12,8.1,12.19,12.19,0,0,0,9,20.34h37.19a12.2,12.2,0,0,0,9-20.36,12.26,12.26,0,0,0,3.12-8.2,12.07,12.07,0,0,0-3.12-8.1,12.18,12.18,0,0,0-8.17-20.3A30.33,30.33,0,0,0,124,133.81Zm-52.63-2.2v-2.17l-1.81-1.2a44.39,44.39,0,1,1,69-36.78c0,14.8-7.54,28.2-20.7,36.76l-1.84,1.2v2.19a22.34,22.34,0,0,1-18,21.88V112.36a20.57,20.57,0,1,0-8.09,0v41.21A22.33,22.33,0,0,1,71.36,131.61Zm22.58-26.93A12.48,12.48,0,1,1,106.41,92.2,12.49,12.49,0,0,1,93.94,104.67Zm22.64,78.53a4,4,0,0,1-4,4H75.34a4.11,4.11,0,0,1,0-8.21h37.19A4.08,4.08,0,0,1,116.58,183.21Zm-4,20.35H75.34a4.11,4.11,0,0,1,0-8.21h37.19a4.11,4.11,0,0,1,0,8.21Zm4-36.65a4,4,0,0,1-4,4H75.34a4.11,4.11,0,0,1,0-8.21h37.19A4.08,4.08,0,0,1,116.58,166.91Z"/>
      <path class="cls-1" d="M183.83,85.71H171a4,4,0,1,0,0,8.09h12.8a4,4,0,0,0,0-8.09Z"/>
      <path class="cls-1" d="M16.84,87.74H4a4,4,0,1,0,0,8.09h12.8a4,4,0,1,0,0-8.09Z"/>
      <path class="cls-1" d="M93.94,20.89a4,4,0,0,0,4-4V4a4,4,0,0,0-8.09,0v12.8A4,4,0,0,0,93.94,20.89Z"/>
      <path class="cls-1" d="M155.35,28.14l-9,9A4,4,0,1,0,152,42.91l9-9a4,4,0,1,0-5.72-5.72Z"/>
      <path class="cls-1" d="M36.08,42.91a4,4,0,0,0,5.72-5.72l-9-9A4,4,0,1,0,27,33.86Z"/>
      <path class="cls-1" d="M151.91,143.15a4,4,0,0,0-5.72,5.72l9,9A4,4,0,1,0,161,152.2Z"/>
      <path class="cls-1" d="M36,143.15l-9,9a4,4,0,1,0,5.72,5.72l9-9A4,4,0,0,0,36,143.15Z"/>
    </g>
  </g>
</svg>
