<svg xmlns="http://www.w3.org/2000/svg" xmlns:xlink="http://www.w3.org/1999/xlink" viewBox="0 0 432.08 424.67">
  <defs>
    <style>
      .cls-1 {
        fill: #fff0d9;
      }

      .cls-2 {
        fill: #fcfcfc;
      }
    </style>
  </defs>
  <title>memocate_homepage_v2</title>
  <g id="about_us4" data-name="about us4">
    <path class="cls-1" d="M365,305.87v0a129.64,129.64,0,1,1-8.92-191.06l0,0a39.68,39.68,0,0,0,56.08-56.16h0l0,0,0,0a39.92,39.92,0,0,0-3.92-3.39A209.4,209.4,0,0,0,271,4.11C154.88,4.11,60.74,98.25,60.74,214.39S154.88,424.67,271,424.67a209.52,209.52,0,0,0,146.24-59.26,40.06,40.06,0,0,0,3.21-2.87A39.64,39.64,0,0,0,365,305.87Z"/>
    <image width="2835" height="4252" transform="translate(-36.03 -45.47) scale(0.11)" xlink:href="../../../../../Desktop/lightbulb.png"/>
    <circle class="cls-2" cx="272.43" cy="214.39" r="129.28"/>
  </g>
</svg>
