<svg xmlns="http://www.w3.org/2000/svg" xmlns:xlink="http://www.w3.org/1999/xlink" viewBox="0 0 504.16 437.93">
  <defs>
    <style>
      .cls-1 {
        fill: #fee;
      }

      .cls-2 {
        fill: #fcfcfc;
      }
    </style>
  </defs>
  <title>memocate_homepage_v2</title>
  <g id="about_us2" data-name="about us2">
    <path class="cls-1" d="M471.79,237.47c17.56,0,32.35-14,32.38-31.55q0-.16,0-.33C504.16,91.07,410.53-1.58,295.64,0,187.28,1.53,97.11,89.51,93.12,197.81,88.83,313.9,180.83,409.53,295.57,411.17c21.24.3,40.46-14.88,42.13-36.06a39.27,39.27,0,0,0-39.14-42.45v-.31a126.8,126.8,0,0,1-122.71-94.88h0m4.92-78.78a126.8,126.8,0,0,1,235.57,0v0Z"/>
    <image width="3008" height="2000" transform="translate(-86.97 47.66) scale(0.2)" xlink:href="../../../../../Desktop/books.png"/>
    <path class="cls-2" d="M298.57,78.56A126.79,126.79,0,0,0,180.78,158.4H416.35v0A126.79,126.79,0,0,0,298.57,78.56Z"/>
    <path class="cls-2" d="M529.7,432.38V206H503.64q0,.16,0,.33c0,17.56-14.82,31.55-32.38,31.55H175.33A126.8,126.8,0,0,0,298,332.78v.31a39.27,39.27,0,0,1,39.14,42.45c-1.67,21.18-20.9,36.36-42.13,36.06"/>
  </g>
</svg>
