<?xml version="1.0" encoding="UTF-8" standalone="no"?>
<svg
   xmlns:dc="http://purl.org/dc/elements/1.1/"
   xmlns:cc="http://creativecommons.org/ns#"
   xmlns:rdf="http://www.w3.org/1999/02/22-rdf-syntax-ns#"
   xmlns:svg="http://www.w3.org/2000/svg"
   xmlns="http://www.w3.org/2000/svg"
   xmlns:sodipodi="http://sodipodi.sourceforge.net/DTD/sodipodi-0.dtd"
   xmlns:inkscape="http://www.inkscape.org/namespaces/inkscape"
   viewBox="0 0 455.93999 81.274381"
   version="1.1"
   id="svg35"
   sodipodi:docname="logo-memocate.svg"
   width="455.94"
   height="81.274384"
   inkscape:version="0.92.2 5c3e80d, 2017-08-06">
  <metadata
     id="metadata39">
    <rdf:RDF>
      <cc:Work
         rdf:about="">
        <dc:format>image/svg+xml</dc:format>
        <dc:type
           rdf:resource="http://purl.org/dc/dcmitype/StillImage" />
      </cc:Work>
    </rdf:RDF>
  </metadata>
  <sodipodi:namedview
     pagecolor="#ffffff"
     bordercolor="#666666"
     borderopacity="1"
     objecttolerance="10"
     gridtolerance="10"
     guidetolerance="10"
     inkscape:pageopacity="0"
     inkscape:pageshadow="2"
     inkscape:window-width="3840"
     inkscape:window-height="2031"
     id="namedview37"
     showgrid="false"
     inkscape:zoom="1.0768351"
     inkscape:cx="218.40501"
     inkscape:cy="25.932084"
     inkscape:window-x="0"
     inkscape:window-y="55"
     inkscape:window-maximized="1"
     inkscape:current-layer="svg35" />
  <defs
     id="defs4">
    <style
       id="style2">.cls-1{fill:#ffb135;}</style>
  </defs>
  <title
     id="title6">svg_memocate</title>
  <g
     id="memocate"
     transform="translate(-52.76,-24.4)">
    <g
       id="logo">
      <path
         class="cls-1"
         d="m 266.51,52.76 a 26.38,26.38 0 1 0 26.38,26.38 26.38,26.38 0 0 0 -26.38,-26.38 z m 0,42.64 a 16.26,16.26 0 1 1 16.26,-16.26 16.26,16.26 0 0 1 -16.26,16.25 z"
         id="path8"
         inkscape:connector-curvature="0"
         style="fill:#ffb135" />
      <path
         class="cls-1"
         d="m 372.89,52.8 a 26.38,26.38 0 1 0 16.26,47.15 v 0.55 a 5.06,5.06 0 0 0 5.05,5.06 v 0 a 5.05,5.05 0 0 0 5.05,-5.05 V 78.82 A 26.37,26.37 0 0 0 372.89,52.8 Z m 1.66,42.56 a 16.26,16.26 0 1 1 14.52,-14.52 16.27,16.27 0 0 1 -14.52,14.52 z"
         id="path10"
         inkscape:connector-curvature="0"
         style="fill:#ffb135" />
      <path
         class="cls-1"
         d="m 399.25,78.21 v 0.61 c 0,0.12 0,0.24 0,0.36 z"
         id="path12"
         inkscape:connector-curvature="0"
         style="fill:#ffb135" />
      <path
         class="cls-1"
         d="m 166,83.26 a 4.12,4.12 0 0 0 4.15,-4 v 0 a 26.38,26.38 0 1 0 -26.38,26.38 v 0 a 5.04,5.04 0 1 0 0,-10.08 v 0 A 16.27,16.27 0 0 1 128.03,83.39 h 38 z M 128.7,73.15 a 16.27,16.27 0 0 1 30.22,0 z"
         id="path14"
         inkscape:connector-curvature="0"
         style="fill:#ffb135" />
      <path
         class="cls-1"
         d="m 485.42,83.3 a 4.12,4.12 0 0 0 4.15,-4 v 0 a 26.38,26.38 0 1 0 -26.76,26.37 5.23,5.23 0 0 0 5.41,-4.63 5,5 0 0 0 -5,-5.45 v 0 A 16.27,16.27 0 0 1 447.45,83.3 h 38 z M 448.08,73.19 a 16.27,16.27 0 0 1 30.22,0 z"
         id="path16"
         inkscape:connector-curvature="0"
         style="fill:#ffb135" />
      <path
         class="cls-1"
         d="m 430.7,95.51 v 0 0 A 16.26,16.26 0 0 1 414.44,79.25 V 64.72 h 16.26 a 5.055,5.055 0 0 0 0,-10.11 h -16.27 v -25.17 0 a 5.04,5.04 0 0 0 -10.08,0 v 49.77 a 26.38,26.38 0 0 0 26.38,26.38 5.04,5.04 0 1 0 0,-10.08 z"
         id="path18"
         inkscape:connector-curvature="0"
         style="fill:#ffb135" />
      <path
         class="cls-1"
         d="m 342,59.63 a 5,5 0 0 0 -0.49,-0.43 26.38,26.38 0 1 0 1.13,38.92 5,5 0 0 0 0.4,-7.39 5,5 0 0 0 -7,-0.07 v 0 a 16.26,16.26 0 1 1 -1.12,-24 v 0 a 5,5 0 0 0 7,-7 v 0 z"
         id="path20"
         inkscape:connector-curvature="0"
         style="fill:#ffb135" />
      <polygon
         class="cls-1"
         points=""
         id="polygon22"
         style="fill:#ffb135" />
      <path
         class="cls-1"
         d="M 112.59,97.93 V 70.67 A 17.48,17.48 0 0 0 82.67,58.38 17.48,17.48 0 0 0 52.76,70.67 V 98 a 5.055,5.055 0 1 0 10.11,0 V 70.67 a 7.38,7.38 0 0 1 14.76,0 V 98 a 5.055,5.055 0 1 0 10.11,0 V 70.67 a 7.38,7.38 0 0 1 14.76,0 V 98 98 a 5.055,5.055 0 1 0 10.11,0 z"
         id="path24"
         inkscape:connector-curvature="0"
         style="fill:#ffb135" />
      <path
         class="cls-1"
         d="M 235.08,97.92 V 70.65 A 17.48,17.48 0 0 0 205.16,58.36 17.48,17.48 0 0 0 175.24,70.65 v 27.29 a 5.055,5.055 0 0 0 10.11,0 V 70.65 a 7.38,7.38 0 0 1 14.76,0 v 27.29 a 5.055,5.055 0 1 0 10.11,0 V 70.65 a 7.38,7.38 0 0 1 14.76,0 v 27.29 0 a 5.055,5.055 0 1 0 10.11,0 z"
         id="path26"
         inkscape:connector-curvature="0"
         style="fill:#ffb135" />
    </g>
  </g>
  <g
     id="brain"
     transform="translate(-52.76,-24.4)">
    <path
       class="cls-1"
       d="m 492.52,54.58 h -3.09 v -1.31 h 7.65 v 1.31 H 494 v 8.63 h -1.49 z"
       id="path30"
       inkscape:connector-curvature="0"
       style="fill:#ffb135" />
    <path
       class="cls-1"
       d="m 507.19,55.31 -3.19,7.9 h -0.63 l -3.22,-7.9 v 7.9 h -1.49 v -9.94 h 2.13 l 2.89,7.14 2.89,-7.14 h 2.13 v 9.94 h -1.49 z"
       id="path32"
       inkscape:connector-curvature="0"
       style="fill:#ffb135" />
  </g>
</svg>
