<?xml version="1.0" encoding="utf-8"?>
<!-- Generator: Adobe Illustrator 21.1.0, SVG Export Plug-In . SVG Version: 6.00 Build 0)  -->
<svg version="1.1" id="memocate" xmlns="http://www.w3.org/2000/svg" xmlns:xlink="http://www.w3.org/1999/xlink" x="0px" y="0px"
	 viewBox="0 0 542.3 155.8" style="enable-background:new 0 0 542.3 155.8;" xml:space="preserve">
<style type="text/css">
	.st0{display:none;}
	.st1{display:inline;fill:#FFB135;}
	.st2{fill:#FFFFFF;}
</style>
<g id="bg" class="st0">
	<rect class="st1" width="542.3" height="155.8"/>
</g>
<g id="logo">
	<g>
		<g>
			<path class="st2" d="M266.5,52.8c-14.6,0-26.4,11.8-26.4,26.4c0,14.6,11.8,26.4,26.4,26.4c14.6,0,26.4-11.8,26.4-26.4
				C292.9,64.6,281.1,52.8,266.5,52.8z M266.5,95.4c-9,0-16.3-7.3-16.3-16.3s7.3-16.3,16.3-16.3c9,0,16.3,7.3,16.3,16.3
				S275.5,95.4,266.5,95.4z"/>
		</g>
	</g>
	<g>
		<g>
			<path class="st2" d="M372.9,52.8c-15.2,0-27.4,12.8-26.3,28.2c0.9,13.2,11.8,23.9,25,24.5c6.6,0.3,12.7-1.8,17.5-5.6
				c0,0,0,0.2,0,0.6c0,2.8,2.3,5.1,5.1,5.1l0,0c2.8,0,5.1-2.3,5.1-5.1V78.8C399.1,64.4,387.3,52.8,372.9,52.8z M374.5,95.4
				c-10.3,1-18.9-7.6-17.8-17.8c0.8-7.6,6.9-13.8,14.5-14.5c10.3-1,18.9,7.6,17.8,17.8C388.3,88.4,382.2,94.6,374.5,95.4z"/>
		</g>
		<g>
			<path class="st2" d="M399.3,78.2v0.6c0,0.1,0,0.2,0,0.4L399.3,78.2z"/>
		</g>
	</g>
	<g>
		<path class="st2" d="M166,83.3c2.3,0,4.2-1.8,4.2-4c0,0,0,0,0,0c0-15.1-12.7-27.3-28.1-26.3c-13.1,0.8-23.8,11.5-24.6,24.6
			c-1,15.3,11.2,28.1,26.3,28.1v0c2.8,0,5-2.3,5-5c0-2.8-2.3-5-5-5v0c-7.6,0-13.9-5.2-15.7-12.2l0,0H166z M128.7,73.2
			c2.4-6,8.3-10.2,15.1-10.2c6.9,0,12.7,4.2,15.1,10.2l0,0L128.7,73.2z"/>
	</g>
	<g>
		<path class="st2" d="M485.4,83.3c2.3,0,4.2-1.8,4.2-4c0,0,0,0,0,0c0-14.7-12-26.6-26.8-26.4c-13.9,0.2-25.5,11.5-26,25.4
			c-0.5,14.9,11.3,27.2,26,27.4c2.7,0,5.2-1.9,5.4-4.6c0.2-3-2.1-5.4-5-5.4v0c-7.6,0-13.9-5.2-15.7-12.2l0,0H485.4z M448.1,73.2
			c2.4-6,8.3-10.2,15.1-10.2c6.9,0,12.7,4.2,15.1,10.2l0,0C478.3,73.2,448.1,73.2,448.1,73.2z"/>
	</g>
	<g>
		<path class="st2" d="M430.7,95.5C430.7,95.5,430.7,95.5,430.7,95.5L430.7,95.5c-9,0-16.3-7.3-16.3-16.3V64.7l0,0h16.3v0
			c2.8,0,5-2.3,5-5.1c0-2.8-2.3-5-5-5.1v0h-16.3l0,0V29.4h0c0-2.8-2.3-5-5-5s-5,2.3-5,5v49.8c0,14.6,11.8,26.4,26.4,26.4
			c2.8,0,5-2.3,5-5C435.7,97.8,433.5,95.5,430.7,95.5z"/>
	</g>
	<g>
		<g>
			<path class="st2" d="M342,59.6c-0.2-0.2-0.3-0.3-0.5-0.4c-4.6-4-10.6-6.4-17.2-6.4c-14.6,0-26.4,11.8-26.4,26.4
				s11.8,26.4,26.4,26.4c7.1,0,13.6-2.8,18.3-7.4c0.1-0.1,0.3-0.2,0.4-0.4c1.9-1.9,1.9-5.1,0-7c-1.9-1.9-5-1.9-7-0.1l0,0
				c-2.9,3-7,4.8-11.5,4.8c-9,0-16.3-7.3-16.3-16.3c0-9,7.3-16.3,16.3-16.3c4,0,7.6,1.4,10.4,3.8l0,0c1.9,1.9,5.1,1.9,7,0
				C344,64.7,344,61.6,342,59.6L342,59.6C342,59.6,342,59.6,342,59.6C342,59.6,342,59.6,342,59.6z"/>
		</g>
		<g>
			<polygon class="st2" points="335,66.7 335,66.7 335,66.7 			"/>
		</g>
	</g>
	<g>
		<path class="st2" d="M112.6,97.9V70.7c0-9.7-7.8-17.5-17.5-17.5c-4.9,0-9.3,2-12.4,5.2c-3.2-3.2-7.6-5.2-12.4-5.2
			c-9.7,0-17.5,7.8-17.5,17.5V98c0,2.8,2.3,5.1,5.1,5.1s5.1-2.3,5.1-5.1V70.7c0-4.1,3.3-7.4,7.4-7.4s7.4,3.3,7.4,7.4V98
			c0,2.8,2.3,5.1,5.1,5.1c2.8,0,5.1-2.3,5.1-5.1V70.7c0-4.1,3.3-7.4,7.4-7.4c4.1,0,7.4,3.3,7.4,7.4V98h0c0,2.8,2.3,5.1,5.1,5.1
			C110.3,103,112.6,100.8,112.6,97.9C112.6,98,112.6,97.9,112.6,97.9z"/>
	</g>
	<g>
		<path class="st2" d="M235.1,97.9V70.7c0-9.7-7.8-17.5-17.5-17.5c-4.9,0-9.3,2-12.4,5.2c-3.2-3.2-7.6-5.2-12.4-5.2
			c-9.7,0-17.5,7.8-17.5,17.5v27.3c0,2.8,2.3,5.1,5.1,5.1s5.1-2.3,5.1-5.1V70.7c0-4.1,3.3-7.4,7.4-7.4s7.4,3.3,7.4,7.4v27.3
			c0,2.8,2.3,5.1,5.1,5.1c2.8,0,5.1-2.3,5.1-5.1V70.7c0-4.1,3.3-7.4,7.4-7.4c4.1,0,7.4,3.3,7.4,7.4v27.3h0c0,2.8,2.3,5.1,5.1,5.1
			C232.8,103,235.1,100.7,235.1,97.9C235.1,97.9,235.1,97.9,235.1,97.9z"/>
	</g>
</g>
<g id="tm">
	<path class="st2" d="M492.5,54.6h-3.1v-1.3h7.6v1.3H494v8.6h-1.5V54.6z"/>
	<path class="st2" d="M507.2,55.3l-3.2,7.9h-0.6l-3.2-7.9v7.9h-1.5v-9.9h2.1l2.9,7.1l2.9-7.1h2.1v9.9h-1.5V55.3z"/>
</g>
</svg>
