<?xml version="1.0" encoding="UTF-8" standalone="no"?>
<!-- Created with Inkscape (http://www.inkscape.org/) -->

<svg
   xmlns:dc="http://purl.org/dc/elements/1.1/"
   xmlns:cc="http://creativecommons.org/ns#"
   xmlns:rdf="http://www.w3.org/1999/02/22-rdf-syntax-ns#"
   xmlns:svg="http://www.w3.org/2000/svg"
   xmlns="http://www.w3.org/2000/svg"
   xmlns:sodipodi="http://sodipodi.sourceforge.net/DTD/sodipodi-0.dtd"
   xmlns:inkscape="http://www.inkscape.org/namespaces/inkscape"
   width="59.97134mm"
   height="59.972893mm"
   viewBox="0 0 212.49687 212.50237"
   id="svg4744"
   version="1.1"
   inkscape:version="0.91 r13725"
   sodipodi:docname="suzanna.svg">
  <defs
     id="defs4746">
    <clipPath
       clipPathUnits="userSpaceOnUse"
       id="clipPath442">
      <path
         d="m 1804.7,1437.73 c 0,469.45 -380.56,850 -850.009,850 -469.449,0 -849.996,-380.55 -849.996,-850 0,-469.449 380.547,-850.019 849.996,-850.019 469.449,0 850.009,380.57 850.009,850.019 z"
         id="path444"
         inkscape:connector-curvature="0" />
    </clipPath>
  </defs>
  <sodipodi:namedview
     id="base"
     pagecolor="#ffffff"
     bordercolor="#666666"
     borderopacity="1.0"
     inkscape:pageopacity="0.0"
     inkscape:pageshadow="2"
     inkscape:zoom="2.8"
     inkscape:cx="75.283244"
     inkscape:cy="116.61326"
     inkscape:document-units="px"
     inkscape:current-layer="layer1"
     showgrid="false"
     fit-margin-top="0"
     fit-margin-left="0"
     fit-margin-right="0"
     fit-margin-bottom="0"
     inkscape:window-width="1871"
     inkscape:window-height="1056"
     inkscape:window-x="1969"
     inkscape:window-y="144"
     inkscape:window-maximized="1" />
  <metadata
     id="metadata4749">
    <rdf:RDF>
      <cc:Work
         rdf:about="">
        <dc:format>image/svg+xml</dc:format>
        <dc:type
           rdf:resource="http://purl.org/dc/dcmitype/StillImage" />
        <dc:title></dc:title>
      </cc:Work>
    </rdf:RDF>
  </metadata>
  <g
     inkscape:label="Layer 1"
     inkscape:groupmode="layer"
     id="layer1"
     transform="translate(-230.89442,-326.11101)">
    <path
       d="m 443.39129,432.35976 c 0,-58.68 -47.56874,-106.24875 -106.24687,-106.24875 -58.68012,0 -106.25,47.56875 -106.25,106.24875 0,58.67987 47.56988,106.25025 106.25,106.25025 58.67813,0 106.24687,-47.57038 106.24687,-106.25025"
       style="fill:#7fd8b9;fill-opacity:1;fill-rule:nonzero;stroke:none"
       id="path434"
       inkscape:connector-curvature="0" />
    <path
       d="m 443.39129,432.35976 c 0,-58.68 -47.56874,-106.24875 -106.24687,-106.24875 l 0,212.499 c 58.67813,0 106.24687,-47.57038 106.24687,-106.25025"
       style="fill:#4eb893;fill-opacity:1;fill-rule:nonzero;stroke:none"
       id="path436"
       inkscape:connector-curvature="0" />
    <g
       transform="matrix(0.125,0,0,-0.125,217.80755,612.07726)"
       id="g438">
      <g
         id="g440"
         clip-path="url(#clipPath442)">
        <path
           d="m 1328.31,1736.44 c 0,205.45 -166.56,372.02 -372.025,372.02 -205.461,0 -372.023,-166.57 -372.023,-372.02 0,-205.46 166.562,-372.03 372.023,-372.03 205.465,0 372.025,166.57 372.025,372.03"
           style="fill:#3e1817;fill-opacity:1;fill-rule:nonzero;stroke:none"
           id="path446"
           inkscape:connector-curvature="0" />
        <path
           d="M 1080.75,939.77 954.707,586.211 831.82,939.77 l 0,272.94 248.93,0 0,-272.94"
           style="fill:#eac3a4;fill-opacity:1;fill-rule:nonzero;stroke:none"
           id="path448"
           inkscape:connector-curvature="0" />
        <path
           d="m 956.277,1969.2 c -120.855,0 -311.984,-68.71 -311.984,-390.66 0,-185.9 72.445,-273.55 98.855,-307.24 24.301,-30.99 149.04,-131.18 213.129,-131.18 0,325.39 0,829.08 0,829.08"
           style="fill:#f3d4b3;fill-opacity:1;fill-rule:nonzero;stroke:none"
           id="path450"
           inkscape:connector-curvature="0" />
        <path
           d="m 584.16,1501.76 c -5.32,51.44 19.192,97.1 54.742,101.97 35.571,4.88 68.703,-32.87 74.043,-84.32 5.332,-51.42 -19.179,-97.07 -54.742,-101.95 -35.562,-4.86 -68.711,32.87 -74.043,84.3"
           style="fill:#f3d4b3;fill-opacity:1;fill-rule:nonzero;stroke:none"
           id="path452"
           inkscape:connector-curvature="0" />
        <path
           d="m 955.293,1969.2 c 120.867,0 311.997,-68.71 311.997,-390.66 0,-185.9 -72.46,-273.55 -98.86,-307.24 -24.31,-30.99 -149.04,-131.18 -213.137,-131.18 0,325.39 0,829.08 0,829.08"
           style="fill:#e9b89d;fill-opacity:1;fill-rule:nonzero;stroke:none"
           id="path454"
           inkscape:connector-curvature="0" />
        <path
           d="m 1328.4,1501.76 c 5.34,51.44 -19.18,97.1 -54.73,101.97 -35.57,4.88 -68.72,-32.87 -74.06,-84.32 -5.33,-51.42 19.2,-97.07 54.76,-101.95 35.56,-4.86 68.71,32.87 74.03,84.3"
           style="fill:#e9b89d;fill-opacity:1;fill-rule:nonzero;stroke:none"
           id="path456"
           inkscape:connector-curvature="0" />
        <path
           d="m 954.707,586.211 0,340 c 0,0 -92.859,23.008 -113.328,98.229 -9.848,36.15 -9.559,65.17 -9.559,65.17 0,0 -203.058,-68.58 -248.386,-139.411 C 545.707,837.91 535.371,586.211 535.371,586.211 l 419.336,0"
           style="fill:#eac3a4;fill-opacity:1;fill-rule:nonzero;stroke:none"
           id="path458"
           inkscape:connector-curvature="0" />
        <path
           d="m 954.707,586.211 0,340 c 0,0 92.863,23.008 113.333,98.229 9.84,36.15 9.55,65.17 9.55,65.17 0,0 203.06,-68.58 248.39,-139.411 37.73,-112.289 48.06,-363.988 48.06,-363.988 l -419.333,0"
           style="fill:#eac3a4;fill-opacity:1;fill-rule:nonzero;stroke:none"
           id="path460"
           inkscape:connector-curvature="0" />
        <path
           d="m 956.285,1253.5 c 47.115,0 85.315,28.93 85.315,64.62 l -170.623,0 c 0,-35.69 38.195,-64.62 85.308,-64.62"
           style="fill:#ffffff;fill-opacity:1;fill-rule:nonzero;stroke:none"
           id="path462"
           inkscape:connector-curvature="0" />
        <path
           d="m 938.699,2061.84 c -220.844,0 -287.992,-193.48 -287.992,-282.58 -80.082,-111.33 7.219,-210.92 69.039,-245.92 0,20.72 0,28.3 0,54.78 0,72 68.445,138.66 171.27,127.56 92.136,-9.95 150.154,42.11 199.174,130.66 60.52,118.56 -15.01,215.5 -151.491,215.5"
           style="fill:#3e1817;fill-opacity:1;fill-rule:nonzero;stroke:none"
           id="path464"
           inkscape:connector-curvature="0" />
        <path
           d="m 1080.75,1882.73 c 0,0 51.59,-209.49 192.92,-279 25.15,188.33 40.01,148.66 0,247.83 -40.02,99.16 -192.92,172.83 -192.92,172.83 l 0,-141.66"
           style="fill:#3e1817;fill-opacity:1;fill-rule:nonzero;stroke:none"
           id="path466"
           inkscape:connector-curvature="0" />
        <path
           d="m 954.707,586.211 0,452.169 -122.887,51.23 c 0,0 -203.058,-68.58 -248.386,-139.411 C 545.707,837.91 535.371,586.211 535.371,586.211 l 419.336,0"
           style="fill:#f4f5f5;fill-opacity:1;fill-rule:nonzero;stroke:none"
           id="path468"
           inkscape:connector-curvature="0" />
        <path
           d="m 954.707,586.211 0,452.169 122.883,51.23 c 0,0 203.06,-68.58 248.39,-139.411 37.73,-112.289 48.06,-363.988 48.06,-363.988 l -419.333,0"
           style="fill:#e9eae9;fill-opacity:1;fill-rule:nonzero;stroke:none"
           id="path470"
           inkscape:connector-curvature="0" />
        <path
           d="m 886.465,2045.6 c 0,0 -188.914,291.82 -420.918,65.16 -232,-226.68 36.156,-646.48 -103.621,-712.59 152.562,19.74 190.187,235.74 175.23,425.85 -13.215,168.11 134.117,249.34 248.824,180.49 48.168,-28.9 100.485,41.09 100.485,41.09"
           style="fill:#3e1817;fill-opacity:1;fill-rule:nonzero;stroke:none"
           id="path472"
           inkscape:connector-curvature="0" />
        <path
           d="m 954.695,1038.8 -126.359,50.81 -31.133,-31.6 62.875,-139.459 94.617,120.249"
           style="fill:#ffffff;fill-opacity:1;fill-rule:nonzero;stroke:none"
           id="path474"
           inkscape:connector-curvature="0" />
        <path
           d="m 954.695,1038.8 126.385,50.81 31.13,-31.6 -62.88,-139.459 -94.635,120.249"
           style="fill:#ffffff;fill-opacity:1;fill-rule:nonzero;stroke:none"
           id="path476"
           inkscape:connector-curvature="0" />
      </g>
    </g>
  </g>
</svg>
