<?xml version="1.0" encoding="UTF-8" standalone="no"?>
<!-- Created with Inkscape (http://www.inkscape.org/) -->

<svg
   xmlns:dc="http://purl.org/dc/elements/1.1/"
   xmlns:cc="http://creativecommons.org/ns#"
   xmlns:rdf="http://www.w3.org/1999/02/22-rdf-syntax-ns#"
   xmlns:svg="http://www.w3.org/2000/svg"
   xmlns="http://www.w3.org/2000/svg"
   xmlns:sodipodi="http://sodipodi.sourceforge.net/DTD/sodipodi-0.dtd"
   xmlns:inkscape="http://www.inkscape.org/namespaces/inkscape"
   width="59.97134mm"
   height="59.972893mm"
   viewBox="0 0 212.49687 212.50237"
   id="svg4744"
   version="1.1"
   inkscape:version="0.91 r13725"
   sodipodi:docname="computer.svg"
   inkscape:export-filename="/home/philippe/Development/projects/memocate/frontpage/img/suzanna.png"
   inkscape:export-xdpi="89.787231"
   inkscape:export-ydpi="89.787231">
  <defs
     id="defs4746">
    <clipPath
       clipPathUnits="userSpaceOnUse"
       id="clipPath442">
      <path
         d="m 1804.7,1437.73 c 0,469.45 -380.56,850 -850.009,850 -469.449,0 -849.996,-380.55 -849.996,-850 0,-469.449 380.547,-850.019 849.996,-850.019 469.449,0 850.009,380.57 850.009,850.019 z"
         id="path444"
         inkscape:connector-curvature="0" />
    </clipPath>
  </defs>
  <sodipodi:namedview
     id="base"
     pagecolor="#ffffff"
     bordercolor="#666666"
     borderopacity="1.0"
     inkscape:pageopacity="0.0"
     inkscape:pageshadow="2"
     inkscape:zoom="1.979899"
     inkscape:cx="188.37684"
     inkscape:cy="8.2448032"
     inkscape:document-units="px"
     inkscape:current-layer="layer1"
     showgrid="false"
     fit-margin-top="0"
     fit-margin-left="0"
     fit-margin-right="0"
     fit-margin-bottom="0"
     inkscape:window-width="1871"
     inkscape:window-height="1056"
     inkscape:window-x="1969"
     inkscape:window-y="144"
     inkscape:window-maximized="1" />
  <metadata
     id="metadata4749">
    <rdf:RDF>
      <cc:Work
         rdf:about="">
        <dc:format>image/svg+xml</dc:format>
        <dc:type
           rdf:resource="http://purl.org/dc/dcmitype/StillImage" />
        <dc:title></dc:title>
      </cc:Work>
    </rdf:RDF>
  </metadata>
  <g
     inkscape:label="Layer 1"
     inkscape:groupmode="layer"
     id="layer1"
     transform="translate(-230.89442,-326.11101)">
    <path
       d="m 443.39129,432.35976 c 0,-58.68 -47.56874,-106.24875 -106.24687,-106.24875 -58.68012,0 -106.25,47.56875 -106.25,106.24875 0,58.67987 47.56988,106.25025 106.25,106.25025 58.67813,0 106.24687,-47.57038 106.24687,-106.25025"
       style="fill:#7fd8b9;fill-opacity:1;fill-rule:nonzero;stroke:none"
       id="path434"
       inkscape:connector-curvature="0" />
    <path
       d="m 443.39129,432.35976 c 0,-58.68 -47.56874,-106.24875 -106.24687,-106.24875 l 0,212.499 c 58.67813,0 106.24687,-47.57038 106.24687,-106.25025"
       style="fill:#4eb893;fill-opacity:1;fill-rule:nonzero;stroke:none"
       id="path436"
       inkscape:connector-curvature="0" />
    <path
       d="m 271.97351,442.66765 126.5412,0 0,-76.64927 -126.5412,0 0,76.64927 z"
       style="fill:#808080;fill-opacity:1;fill-rule:evenodd;stroke:none"
       id="path18"
       inkscape:connector-curvature="0" />
    <path
       d="m 272.33103,442.28553 125.82607,0 0,-75.88501 -125.82607,0 0,75.88501 z"
       style="fill:#e6e6e6;fill-opacity:1;fill-rule:evenodd;stroke:none"
       id="path20"
       inkscape:connector-curvature="0" />
    <path
       d="m 336.80014,442.28553 61.35737,0 0,-75.88501 -61.35737,0 0,75.88501 z"
       style="fill:#cccccc;fill-opacity:1;fill-rule:evenodd;stroke:none"
       id="path22"
       inkscape:connector-curvature="0" />
    <path
       d="m 276.85908,437.98334 116.77027,0 0,-67.28115 -116.77027,0 0,67.28115 z"
       style="fill:#cccccc;fill-opacity:1;fill-rule:evenodd;stroke:none"
       id="path24"
       inkscape:connector-curvature="0" />
    <path
       d="m 277.26396,437.54278 115.95999,0 0,-66.39951 -115.95999,0 0,66.39951 z"
       style="fill:#333333;fill-opacity:1;fill-rule:evenodd;stroke:none"
       id="path26"
       inkscape:connector-curvature="0" />
    <path
       d="m 336.70634,437.54278 56.51812,0 0,-66.39951 -56.51812,0 0,66.39951 z"
       style="fill:#1a1a1a;fill-opacity:1;fill-rule:evenodd;stroke:none"
       id="path28"
       inkscape:connector-curvature="0" />
    <path
       d="m 271.68285,448.27343 126.75957,0 14.92994,44.27427 -156.6197,0 14.93019,-44.27427"
       style="fill:#808080;fill-opacity:1;fill-rule:evenodd;stroke:none"
       id="path30"
       inkscape:connector-curvature="0" />
    <path
       d="m 271.97351,448.67728 126.18348,0 14.65795,43.46606 -155.49911,0 14.65768,-43.46606"
       style="fill:#e6e6e6;fill-opacity:1;fill-rule:evenodd;stroke:none"
       id="path32"
       inkscape:connector-curvature="0" />
    <path
       d="m 336.80014,448.55759 61.65086,0 14.36394,43.58575 -76.0148,0 0,-43.58575"
       style="fill:#cccccc;fill-opacity:1;fill-rule:evenodd;stroke:none"
       id="path34"
       inkscape:connector-curvature="0" />
    <path
       d="m 317.94342,475.02456 34.33115,-0.0388 2.89054,12.23951 -39.80714,0.0388 2.58545,-12.23951"
       style="fill:#cccccc;fill-opacity:1;fill-rule:evenodd;stroke:none"
       id="path36"
       inkscape:connector-curvature="0" />
    <path
       d="m 318.09182,475.25466 33.94334,0 2.77936,11.69243 -39.0951,0 2.3724,-11.69243"
       style="fill:#333333;fill-opacity:1;fill-rule:evenodd;stroke:none"
       id="path38"
       inkscape:connector-curvature="0" />
    <path
       d="m 336.80014,475.25466 15.45599,0 2.55839,11.69243 -18.01438,0 0,-11.69243"
       style="fill:#1a1a1a;fill-opacity:1;fill-rule:evenodd;stroke:none"
       id="path40"
       inkscape:connector-curvature="0" />
  </g>
</svg>
